<svg xmlns="http://www.w3.org/2000/svg" viewBox="0 0 120 140" width="512" height="512" style="background-color:#171a2b;">
  <rect x="10" y="110" width="100" height="8" fill="#000" opacity=".25" rx="4"></rect>
  <!-- 胴体 -->
  <g transform="translate(46,50)">
    <rect x="0" y="0" width="28" height="30" fill="#f6c09b" stroke="#c49377" stroke-width="1"/>
    <rect x="1" y="10" width="26" height="3" fill="#eaa889"/>
  </g>
  <!-- 腹部 -->
  <g transform="translate(49,82)">
    <rect x="0" y="0" width="22" height="14" fill="#f2b494" stroke="#c49377" stroke-width="1"/>
    <rect x="2" y="2" width="6" height="4" fill="#e59c7c"/>
    <rect x="9" y="2" width="6" height="4" fill="#e59c7c"/>
    <rect x="16" y="2" width="6" height="4" fill="#e59c7c"/>
  </g>
  <!-- 左腕 -->
  <g transform="translate(38,54)">
    <rect x="0" y="0" width="8" height="18" fill="#f6c09b" stroke="#c49377" stroke-width="1"/>
    <rect x="1" y="16" width="6" height="6" fill="#f6c09b" stroke="#c49377" stroke-width="1"/>
  </g>
  <!-- 右腕 -->
  <g transform="translate(74,54)">
    <rect x="0" y="0" width="8" height="18" fill="#f6c09b" stroke="#c49377" stroke-width="1"/>
    <rect x="1" y="16" width="6" height="6" fill="#f6c09b" stroke="#c49377" stroke-width="1"/>
  </g>
  <!-- 左脚 -->
  <g transform="translate(50,98)">
    <rect x="0" y="0" width="8" height="22" fill="#3e57c6" stroke="#2a3a82" stroke-width="1"/>
  </g>
  <!-- 右脚 -->
  <g transform="translate(62,98)">
    <rect x="0" y="0" width="8" height="22" fill="#3e57c6" stroke="#2a3a82" stroke-width="1"/>
  </g>
  <!-- 頭 -->
  <g transform="translate(50,28)">
    <rect x="0" y="0" width="20" height="18" fill="#f6c09b" stroke="#c49377" stroke-width="1"/>
    <rect x="4" y="6" width="4" height="2" fill="#3a2b2b"/>
    <rect x="12" y="6" width="4" height="2" fill="#3a2b2b"/>
    <rect x="7" y="12" width="6" height="2" fill="#c47b66"/>
    <rect x="-2" y="-4" width="24" height="6" fill="#2b2b38"/>
  </g>
</svg>